<svg width="1920" height="1146" viewBox="0 0 1920 1146" fill="none" xmlns="http://www.w3.org/2000/svg">
<rect y="1" width="1920" height="1145" fill="#1642B9"/>
<g clip-path="url(#clip0_206_3995)">
<mask id="mask0_206_3995" style="mask-type:alpha" maskUnits="userSpaceOnUse" x="0" y="0" width="1920" height="1146">
<path d="M0 0.779297H1920V1145.78H0V0.779297Z" fill="#1642B9"/>
</mask>
<g mask="url(#mask0_206_3995)">
<g opacity="0.3" filter="url(#filter0_f_206_3995)">
<path d="M81.0163 1081.09C150.137 1081.09 206.17 1025.06 206.17 955.938C206.17 886.817 150.137 830.784 81.0163 830.784C11.8957 830.784 -44.1377 886.817 -44.1377 955.938C-44.1377 1025.06 11.8957 1081.09 81.0163 1081.09Z" fill="url(#paint0_linear_206_3995)"/>
</g>
<g opacity="0.3" filter="url(#filter1_f_206_3995)">
<path d="M1679.6 1382.05C1912.17 1382.05 2100.7 1193.52 2100.7 960.948C2100.7 728.381 1912.17 539.848 1679.6 539.848C1447.03 539.848 1258.5 728.381 1258.5 960.948C1258.5 1193.52 1447.03 1382.05 1679.6 1382.05Z" fill="url(#paint1_linear_206_3995)"/>
</g>
<g opacity="0.3" filter="url(#filter2_f_206_3995)">
<path d="M1261.7 -132.511C1138.6 -132.511 1038.8 -32.715 1038.8 90.3893C1038.8 213.494 1138.6 313.289 1261.7 313.289C1384.8 313.289 1484.6 213.494 1484.6 90.3893C1484.6 -32.715 1384.8 -132.511 1261.7 -132.511Z" fill="url(#paint2_linear_206_3995)"/>
</g>
<g opacity="0.3" filter="url(#filter3_f_206_3995)">
<path d="M135.271 -102.375C78.2947 -102.375 32.1066 -56.1874 32.1066 0.788513C32.1066 57.7644 78.2947 103.953 135.271 103.953C192.246 103.953 238.435 57.7644 238.435 0.788513C238.435 -56.1874 192.246 -102.375 135.271 -102.375Z" fill="url(#paint3_linear_206_3995)"/>
</g>
</g>
<path d="M182 575C188.627 575 194 569.627 194 563C194 556.373 188.627 551 182 551C175.373 551 170 556.373 170 563C170 569.627 175.373 575 182 575Z" fill="#FFE073"/>
<path d="M27 625C33.0751 625 38 619.851 38 613.5C38 607.149 33.0751 602 27 602C20.9248 602 16 607.149 16 613.5C16 619.851 20.9248 625 27 625Z" fill="#EE7B11"/>
<path d="M194.5 575C196.985 575 199 572.985 199 570.5C199 568.015 196.985 566 194.5 566C192.015 566 190 568.015 190 570.5C190 572.985 192.015 575 194.5 575Z" fill="#EE7B11"/>
<path d="M100 444C103.866 444 107 440.642 107 436.5C107 432.358 103.866 429 100 429C96.134 429 93 432.358 93 436.5C93 440.642 96.134 444 100 444Z" fill="#165DF5"/>
<path d="M1628 656C1623.58 656 1620 659.582 1620 664C1620 668.418 1623.58 672 1628 672C1632.42 672 1636 668.418 1636 664C1636 659.582 1632.42 656 1628 656Z" fill="#FFE073"/>
<path d="M1652.36 881.546C1650.85 881.546 1649.62 882.771 1649.62 884.282C1649.62 885.793 1650.85 887.018 1652.36 887.018C1653.87 887.018 1655.1 885.793 1655.1 884.282C1655.1 882.771 1653.87 881.546 1652.36 881.546Z" fill="#EE7B11"/>
<path d="M1611.5 729C1605.7 729 1601 733.701 1601 739.5C1601 745.299 1605.7 750 1611.5 750C1617.3 750 1622 745.299 1622 739.5C1622 733.701 1617.3 729 1611.5 729Z" fill="#31FFF3"/>
<path d="M1720 233C1715.58 233 1712 236.582 1712 241C1712 245.418 1715.58 249 1720 249C1724.42 249 1728 245.418 1728 241C1728 236.582 1724.42 233 1720 233Z" fill="#FFE073"/>
<path d="M1744.36 458.546C1742.85 458.546 1741.62 459.771 1741.62 461.282C1741.62 462.793 1742.85 464.018 1744.36 464.018C1745.87 464.018 1747.1 462.793 1747.1 461.282C1747.1 459.771 1745.87 458.546 1744.36 458.546Z" fill="#EE7B11"/>
<path d="M1703.5 306C1697.7 306 1693 310.701 1693 316.5C1693 322.299 1697.7 327 1703.5 327C1709.3 327 1714 322.299 1714 316.5C1714 310.701 1709.3 306 1703.5 306Z" fill="#31FFF3"/>
<path d="M1810.92 201C1809.86 201 1809 201.86 1809 202.922C1809 203.983 1809.86 204.844 1810.92 204.844C1811.98 204.844 1812.84 203.983 1812.84 202.922C1812.84 201.86 1811.98 201 1810.92 201Z" fill="#165DF5"/>
</g>
<defs>
<filter id="filter0_f_206_3995" x="-54.1377" y="820.784" width="270.308" height="270.308" filterUnits="userSpaceOnUse" color-interpolation-filters="sRGB">
<feFlood flood-opacity="0" result="BackgroundImageFix"/>
<feBlend mode="normal" in="SourceGraphic" in2="BackgroundImageFix" result="shape"/>
<feGaussianBlur stdDeviation="5" result="effect1_foregroundBlur_206_3995"/>
</filter>
<filter id="filter1_f_206_3995" x="1248.5" y="529.848" width="862.2" height="862.2" filterUnits="userSpaceOnUse" color-interpolation-filters="sRGB">
<feFlood flood-opacity="0" result="BackgroundImageFix"/>
<feBlend mode="normal" in="SourceGraphic" in2="BackgroundImageFix" result="shape"/>
<feGaussianBlur stdDeviation="5" result="effect1_foregroundBlur_206_3995"/>
</filter>
<filter id="filter2_f_206_3995" x="1028.8" y="-142.511" width="465.8" height="465.8" filterUnits="userSpaceOnUse" color-interpolation-filters="sRGB">
<feFlood flood-opacity="0" result="BackgroundImageFix"/>
<feBlend mode="normal" in="SourceGraphic" in2="BackgroundImageFix" result="shape"/>
<feGaussianBlur stdDeviation="5" result="effect1_foregroundBlur_206_3995"/>
</filter>
<filter id="filter3_f_206_3995" x="22.1064" y="-112.375" width="226.328" height="226.328" filterUnits="userSpaceOnUse" color-interpolation-filters="sRGB">
<feFlood flood-opacity="0" result="BackgroundImageFix"/>
<feBlend mode="normal" in="SourceGraphic" in2="BackgroundImageFix" result="shape"/>
<feGaussianBlur stdDeviation="5" result="effect1_foregroundBlur_206_3995"/>
</filter>
<linearGradient id="paint0_linear_206_3995" x1="30.6147" y1="841.601" x2="93.72" y2="998.178" gradientUnits="userSpaceOnUse">
<stop stop-color="#165DF5"/>
<stop offset="1" stop-color="#165DF5" stop-opacity="0"/>
</linearGradient>
<linearGradient id="paint1_linear_206_3995" x1="1510.02" y1="576.246" x2="1722.35" y2="1103.07" gradientUnits="userSpaceOnUse">
<stop stop-color="#165DF5"/>
<stop offset="1" stop-color="#165DF5" stop-opacity="0"/>
</linearGradient>
<linearGradient id="paint2_linear_206_3995" x1="1351.46" y1="294.024" x2="1239.07" y2="15.1596" gradientUnits="userSpaceOnUse">
<stop stop-color="#165DF5"/>
<stop offset="1" stop-color="#165DF5" stop-opacity="0"/>
</linearGradient>
<linearGradient id="paint3_linear_206_3995" x1="176.816" y1="95.036" x2="124.799" y2="-34.0299" gradientUnits="userSpaceOnUse">
<stop stop-color="#165DF5"/>
<stop offset="1" stop-color="#165DF5" stop-opacity="0"/>
</linearGradient>
<clipPath id="clip0_206_3995">
<rect width="1920" height="1146" fill="white"/>
</clipPath>
</defs>
</svg>
